<?xml version="1.0" encoding="UTF-8"?>
<svg id="Layer_2" data-name="Layer 2" xmlns="http://www.w3.org/2000/svg" viewBox="0 0 827.57 326.63">
  <defs>
    <style>
      .cls-1 {
        fill: #0078b2;
      }

      .cls-1, .cls-2, .cls-3, .cls-4 {
        stroke-width: 0px;
      }

      .cls-2, .cls-3 {
        fill: #ec1c24;
      }

      .cls-3 {
        fill-rule: evenodd;
      }

      .cls-4 {
        fill: #fff;
      }
    </style>
  </defs>
  <g id="Layer_2-2" data-name="Layer 2">
    <g>
      <g>
        <path class="cls-4" d="M257.96,177.12h4.05v29.04h-4.05v-29.04ZM260.35,202.39h7.87c2.06,0,3.57-.39,4.51-1.18.95-.79,1.42-1.89,1.42-3.32v-.06c0-.99-.17-1.83-.51-2.54-.34-.71-.88-1.25-1.61-1.63-.73-.38-1.67-.57-2.82-.57h-8.87v-3.68h8.87c1.5,0,2.64-.35,3.41-1.06.77-.71,1.15-1.75,1.15-3.14s-.43-2.54-1.28-3.26c-.85-.72-2.13-1.08-3.83-1.08h-8.31v-3.77h9.05c1.88,0,3.45.32,4.71.96s2.21,1.54,2.84,2.72c.63,1.17.94,2.57.94,4.19,0,1-.19,1.93-.58,2.81s-.98,1.62-1.77,2.24c-.79.62-1.77,1.04-2.95,1.25,1.17.17,2.18.59,3.04,1.25s1.5,1.48,1.96,2.47c.45.99.68,2.05.68,3.2v.06c0,1.57-.35,2.96-1.04,4.15s-1.68,2.12-2.98,2.78c-1.29.65-2.8.98-4.51.98h-9.39v-3.77Z"/>
        <path class="cls-4" d="M288.04,177.12h4.07v29.04h-4.07v-29.04ZM290.58,189.92h16.12v3.87h-16.12v-3.87ZM304.54,177.12h4.07v29.04h-4.07v-29.04Z"/>
        <path class="cls-4" d="M326.99,177.12h3.48l10.71,29.04h-4.39l-8.05-23.43-8.05,23.43h-4.39l10.71-29.04ZM321.22,195.92h15.28v3.88h-15.28v-3.88Z"/>
        <path class="cls-4" d="M349.25,177.1h4.07v29.06h-4.07v-29.06ZM351.03,190h9.91c.77,0,1.46-.19,2.06-.56.6-.37,1.06-.9,1.39-1.59.33-.69.49-1.47.49-2.37s-.16-1.68-.49-2.37c-.33-.69-.79-1.21-1.38-1.59-.59-.37-1.28-.56-2.07-.56h-9.91v-3.88h9.75c1.68,0,3.15.35,4.42,1.04,1.27.69,2.26,1.67,2.96,2.95.7,1.27,1.05,2.74,1.05,4.4s-.35,3.13-1.06,4.4c-.71,1.27-1.69,2.25-2.97,2.95-1.27.69-2.74,1.04-4.4,1.04h-9.75v-3.88ZM358.94,192.98l4.05-.92,7.43,14.1h-4.83l-6.65-13.18Z"/>
        <path class="cls-4" d="M386.51,177.12h3.48l10.71,29.04h-4.39l-8.05-23.43-8.05,23.43h-4.39l10.71-29.04ZM380.73,195.92h15.28v3.88h-15.28v-3.88Z"/>
        <path class="cls-4" d="M403.97,177.12h20.49v3.88h-20.49v-3.88ZM412.18,179.5h4.07v26.66h-4.07v-26.66Z"/>
      </g>
      <g>
        <path class="cls-3" d="M0,110.45l61.65,96.26c24.13,33.2,73.67,32.81,97.29-.64L305.01,0l-168.79,154.49c-13.4,12.26-41.74,17.45-62.92,3.19L0,110.45Z"/>
        <path class="cls-2" d="M133.22,326.63l-50.55-87.1c26.97,15.16,63.1,6.97,84.99-21.65l41.75-61.27s29.74,105.93-76.18,170.02Z"/>
      </g>
      <g>
        <path class="cls-1" d="M370.12,232.09l-24.17,50.86c-5.16,10.2-13.22,16.62-22.03,19.13v24.55h-19.01v-24.55c-8.56-2.39-16.87-8.69-21.65-19.13l-24.42-50.86h20.77l20.27,42.8c6.8,13.47,22.28,13.47,29.33,0l20.14-42.8h20.77Z"/>
        <path class="cls-1" d="M474.09,250.72h-61.05c-11.96,0-12.46,19.13,0,19.13h61.05v18.88h-61.05c-12.21,0-12.08,19.01,0,19.01h61.05v18.76h-61.05c-24.93,0-35-27.19-21.15-47.58-15.11-17.5-2.9-46.83,21.15-46.83h61.05v18.63Z"/>
        <path class="cls-1" d="M586.25,250.72c-20.9,0-36.38.13-57.15.13-12.21,0-12.21,18.76,0,18.76h34.74c36.88,0,36.88,56.9,0,56.9-20.9,0-35.63.13-56.77.13v-18.76c21.15,0,35.75-.13,56.77-.13,12.34,0,12.34-19.01,0-19.01h-34.74c-36.88,0-36.88-56.65,0-56.65h57.15v18.63Z"/>
        <path class="cls-1" d="M618.73,232.09h65.59c24.3,0,37.26,29.33,21.15,46.83,9.44,11.58,9.94,28.83-.88,39.15-5.29,5.16-12.34,8.43-20.27,8.43h-65.59v-18.76h65.59c12.59,0,12.71-19.01,0-19.01h-65.59v-18.88h65.59c12.59,0,12.71-19.13,0-19.13h-65.59v-18.63Z"/>
        <path class="cls-1" d="M827.57,250.72h-61.05c-11.96,0-12.46,19.13,0,19.13h61.05v18.88h-61.05c-12.21,0-12.08,19.01,0,19.01h61.05v18.76h-61.05c-24.93,0-35-27.19-21.15-47.58-15.11-17.5-2.9-46.83,21.15-46.83h61.05v18.63Z"/>
      </g>
    </g>
  </g>
</svg>